<svg width="489" height="135" viewBox="0 0 489 135" fill="none" xmlns="http://www.w3.org/2000/svg">
<path d="M72.3362 116.5V10.5L71.8362 8.5L69.8362 6L66.8362 3L61.3362 1L55.8362 3L49.8362 7L48.3362 8L46.3362 9.5V11.5L43.8362 13.5L42.3362 12.5L40.8362 10.5H37.8362L36.3362 12.5L35.3362 16.5L30.8362 17.5L26.8362 19L23.8362 21L20.8362 22.5L18.8362 25.5L18.3362 28L16.8362 31.5V41.5L16.3362 45L14.3362 46.5L12.8362 47.5L12.3362 48L7.33618 50.5L4.83618 53L2.33618 57.5L1.83618 62V68L3.83618 73.5L5.83618 77L6.83618 79.5L5.83618 80.5L3.83618 81.5L2.83618 83.5L2.33618 88L3.83618 90.5L4.83618 92.5L6.83618 95L9.83618 96.5L10.8362 99L11.3362 103L12.3362 105.5L13.3362 108.5L16.8362 111.5L18.8362 113L21.8362 114.5L25.3362 115.5L28.3362 116.5H31.8362L33.3362 120.5L35.3362 125L38.8362 129.5L42.3362 131L46.3362 132.5H48.3362H52.3362H55.8362L71.8362 119L72.3362 116.5Z" fill="#EEEEEE"/>
<path d="M71.2234 10.9296C71.2234 10.3449 71.0925 9.77971 70.8433 9.29829L70.7294 9.09665C68.4178 5.37001 65.9962 3.55651 63.6891 2.89415C61.3821 2.23197 58.9586 2.65431 56.5076 3.86808C51.5414 6.3275 46.8876 11.8327 43.9867 16.4656C43.5282 17.1977 42.7147 17.5893 41.9037 17.5616C29.5364 17.1369 23.228 21.4117 20.1768 26.7131C17.0535 32.1398 17.1404 38.982 18.2985 43.9625C18.558 45.0794 17.9701 46.1971 16.9717 46.6594L16.7661 46.7431C11.6987 48.536 8.31517 50.9003 6.13451 53.4971C3.96044 56.0862 2.9244 58.9741 2.65417 61.9217C2.10817 67.8787 4.69767 74.1008 7.48651 78.2869L7.60145 78.4775C8.08897 79.3818 7.92637 80.4884 7.24858 81.2258L7.09533 81.3781C5.11715 83.1746 4.14877 84.783 3.77933 86.155C3.41636 87.5031 3.60103 88.7368 4.14632 89.8783C5.27973 92.2504 7.97406 94.2057 10.4537 95.3629L10.613 95.4436C11.3334 95.8482 11.7882 96.5994 11.8299 97.4126L11.8329 97.588C11.6793 104.564 14.7274 108.853 18.6796 111.47C22.7063 114.137 27.7342 115.097 31.4032 115.153C32.4462 115.169 33.3364 115.867 33.6374 116.83L33.6898 117.025L33.8703 117.797C35.8073 125.63 39.9155 129.307 44.2488 130.834C48.8259 132.447 53.8875 131.74 57.3948 130.48L57.6186 130.384C57.8404 130.274 58.0548 130.121 58.2558 129.927L70.3533 118.277L70.5509 118.068C70.9831 117.557 71.2234 116.908 71.2234 116.233V10.9296ZM73.8044 116.233C73.8044 117.614 73.2775 118.939 72.3375 119.941L72.1439 120.137L60.0464 131.786C59.6163 132.201 59.1065 132.559 58.523 132.809L58.2679 132.91C54.4056 134.298 48.7034 135.141 43.3908 133.269C38.003 131.37 33.2429 126.756 31.2036 117.729C27.2246 117.643 21.7541 116.602 17.254 113.622C12.6419 110.567 9.11301 105.507 9.25088 97.6465C6.58546 96.3825 3.31175 94.1185 1.81736 90.9903C1.03828 89.3595 0.745578 87.4943 1.28704 85.4835C1.8127 83.5316 3.09305 81.5562 5.24426 79.5744C2.31556 75.1266 -0.529699 68.3863 0.0842516 61.6868C0.39739 58.2704 1.61158 54.8706 4.15842 51.8376C6.67358 48.8425 10.4317 46.2719 15.7437 44.3678C14.5416 39.0471 14.4083 31.5613 17.9396 25.4256C21.5719 19.1146 28.882 14.5627 41.8724 14.9795C44.8707 10.2226 49.8029 4.30845 55.3623 1.55525C58.1966 0.151612 61.2963 -0.478619 64.4019 0.412956C67.5074 1.30455 70.3889 3.65249 72.9222 7.73658L73.0321 7.92108C73.5609 8.85225 73.8044 9.90511 73.8044 10.9296V116.233Z" fill="#27214C"/>
<path d="M84.9026 116.233V10.9298C84.9026 10.0491 85.1266 9.16492 85.5908 8.4165C95.2805 -7.20503 108.632 6.37137 114.524 15.7808C114.724 16.101 115.091 16.2851 115.469 16.2721C140.901 15.3989 142.773 33.9431 140.375 44.2544C140.251 44.7896 140.563 45.3428 141.081 45.5261C162.011 52.9314 156.754 70.3704 151.004 79.0021C150.704 79.4518 150.788 80.0597 151.188 80.4229C159.588 88.0513 152.673 94.1215 147.508 96.5319C147.114 96.716 146.864 97.124 146.874 97.5591C147.202 112.463 133.694 116.326 126.033 116.443C125.531 116.451 125.095 116.814 124.986 117.304C121.113 134.793 106.955 134.344 99.585 131.695C99.0888 131.516 98.6449 131.223 98.265 130.857L86.1678 119.208C85.3594 118.429 84.9026 117.355 84.9026 116.233Z" fill="#00E2BF"/>
<path d="M86.1931 10.9296C86.1932 10.3449 86.324 9.77972 86.5732 9.29829L86.6871 9.09665C88.9987 5.37001 91.4203 3.55651 93.7275 2.89415C96.0344 2.23197 98.4579 2.65431 100.909 3.86808C105.565 6.1738 109.946 11.1563 112.866 15.5875L113.43 16.4656C113.86 17.1522 114.602 17.5399 115.362 17.5626L115.513 17.5616C127.88 17.1369 134.189 21.4117 137.24 26.7131C140.363 32.1398 140.276 38.982 139.118 43.9625L139.078 44.1853C138.939 45.2253 139.513 46.2279 140.445 46.6594L140.65 46.7431C145.718 48.536 149.101 50.9003 151.282 53.4971C153.456 56.0862 154.492 58.9741 154.762 61.9217C155.308 67.8787 152.719 74.1008 149.93 78.2869L149.815 78.4775C149.328 79.3818 149.49 80.4884 150.168 81.2258L150.321 81.3781C152.299 83.1746 153.268 84.783 153.637 86.155C154 87.5031 153.815 88.7368 153.27 89.8783C152.137 92.2504 149.442 94.2057 146.963 95.3629L146.804 95.4436C146.083 95.8482 145.628 96.5994 145.587 97.4126L145.584 97.588C145.737 104.564 142.689 108.853 138.737 111.47C134.71 114.137 129.682 115.097 126.013 115.153L125.808 115.165C124.855 115.263 124.06 115.931 123.779 116.83L123.727 117.025L123.546 117.797C121.609 125.63 117.501 129.307 113.168 130.834C108.591 132.447 103.529 131.74 100.022 130.48L99.7979 130.384C99.5761 130.274 99.3617 130.121 99.1607 129.927L87.0632 118.277L86.8656 118.068C86.4334 117.557 86.1931 116.908 86.1931 116.233V10.9296ZM83.6121 116.233C83.6121 117.614 84.139 118.939 85.0791 119.941L85.2726 120.137L97.3701 131.786C97.8002 132.201 98.31 132.559 98.8935 132.809L99.1486 132.91C103.011 134.298 108.713 135.141 114.026 133.269C119.414 131.37 124.174 126.756 126.213 117.729C130.192 117.643 135.662 116.602 140.162 113.622C144.775 110.567 148.303 105.507 148.166 97.6465C150.831 96.3825 154.105 94.1185 155.599 90.9903C156.378 89.3595 156.671 87.4943 156.129 85.4835C155.604 83.5316 154.323 81.5562 152.172 79.5744C155.101 75.1266 157.946 68.3863 157.332 61.6868C157.019 58.2704 155.805 54.8706 153.258 51.8376C150.743 48.8425 146.985 46.2719 141.673 44.3678C142.875 39.0471 143.008 31.5613 139.477 25.4256C135.845 19.1146 128.535 14.5627 115.544 14.9795C112.546 10.2226 107.614 4.30845 102.054 1.55525C99.2199 0.151612 96.1202 -0.478619 93.0147 0.412956C89.9091 1.30455 87.0276 3.65249 84.4943 7.73658L84.3844 7.92108C83.8556 8.85225 83.6121 9.9051 83.6121 10.9296V116.233Z" fill="#27214C"/>
<path d="M73.1653 97.8058L73.2346 97.886C73.5548 98.2999 73.5155 98.8972 73.1279 99.2654C72.7403 99.6335 72.1418 99.6422 71.7449 99.3012L71.6683 99.2279L52.0529 78.5801C51.6601 78.1667 51.6769 77.5132 52.0903 77.1205C52.5037 76.7278 53.1571 76.7445 53.5498 77.1579L73.1653 97.8058Z" fill="#27214C"/>
<path d="M124.79 91.3793L124.869 91.459C125.238 91.8716 125.255 92.4863 124.892 92.8791C124.53 93.2719 123.916 93.3038 123.475 92.9688L123.389 92.8965L109.184 79.784C108.74 79.3746 108.694 78.7031 109.081 78.2842C109.468 77.8652 110.141 77.8574 110.584 78.2667L124.79 91.3793Z" fill="#27214C"/>
<path d="M153.379 81.4242L153.47 81.5105C153.904 81.9597 153.979 82.6107 153.627 83.0131C153.275 83.4154 152.62 83.4266 152.117 83.0568L152.02 82.9781L132.293 65.7171C131.78 65.2687 131.669 64.5573 132.045 64.1282C132.42 63.6991 133.14 63.7147 133.652 64.1631L153.379 81.4242Z" fill="#27214C"/>
<path d="M61.8514 127.547L61.9264 127.629C62.275 128.053 62.2654 128.665 61.8875 129.043C61.5096 129.421 60.8972 129.431 60.4735 129.082L60.3914 129.007L47.39 116.006C46.9669 115.583 46.9508 114.913 47.3539 114.51C47.7571 114.107 48.427 114.123 48.8501 114.546L61.8514 127.547Z" fill="#27214C"/>
<path d="M39.3491 113.868L39.4537 113.86C39.9771 113.847 40.4352 114.233 40.5016 114.764C40.5679 115.294 40.2189 115.782 39.7086 115.898L39.6052 115.916L31.3457 116.949C30.7799 117.02 30.2639 116.618 30.1932 116.052C30.1225 115.487 30.5238 114.971 31.0896 114.9L39.3491 113.868Z" fill="#27214C"/>
<path d="M8.17659 79.5128L8.09649 79.5806C7.67982 79.8975 7.08225 79.8534 6.71741 79.4625C6.35258 79.0716 6.3497 78.4724 6.69451 78.0785L6.76773 78.0033L22.254 63.5494C22.6708 63.1604 23.3241 63.1829 23.7132 63.5997C24.1022 64.0166 24.0797 64.6699 23.6629 65.0589L8.17659 79.5128Z" fill="#27214C"/>
<path d="M85.6088 96.0295L85.5282 96.0982C85.1122 96.4155 84.5151 96.3723 84.1496 95.9824C83.784 95.5925 83.7793 94.9938 84.1228 94.5992L84.1966 94.5231L100.715 79.0371C101.131 78.6471 101.784 78.6682 102.174 79.0842C102.564 79.5001 102.543 80.1535 102.127 80.5434L85.6088 96.0295Z" fill="#27214C"/>
<path d="M94.8886 127.012L94.8069 127.08C94.3862 127.391 93.7897 127.338 93.4303 126.943C93.0708 126.548 93.0754 125.949 93.4248 125.56L93.4997 125.485L104.856 115.16C105.278 114.777 105.931 114.808 106.315 115.23C106.698 115.652 106.667 116.305 106.245 116.688L94.8886 127.012Z" fill="#27214C"/>
<path d="M132.065 93.9664L131.985 94.0343C131.568 94.3511 130.971 94.307 130.606 93.9161C130.241 93.5252 130.238 92.926 130.583 92.5322L130.656 92.4569L146.142 78.0031C146.559 77.614 147.213 77.6366 147.602 78.0534C147.991 78.4702 147.968 79.1235 147.551 79.5126L132.065 93.9664Z" fill="#27214C"/>
<path d="M29.8571 93.9664L29.777 94.0343C29.3603 94.3511 28.7627 94.307 28.3979 93.9161C28.0331 93.5252 28.0302 92.926 28.375 92.5322L28.4482 92.4569L43.9345 78.0031C44.3513 77.614 45.0046 77.6366 45.3937 78.0534C45.7827 78.4702 45.7602 79.1235 45.3433 79.5126L29.8571 93.9664Z" fill="#27214C"/>
<path d="M55.4783 98.9513L55.417 99.0007C55.0993 99.2312 54.6521 99.1885 54.385 98.8894C54.118 98.5903 54.126 98.1411 54.391 97.8515L54.4469 97.7962L63.7389 89.5003C64.0579 89.2155 64.5474 89.2432 64.8322 89.5622C65.117 89.8812 65.0892 90.3706 64.7702 90.6555L55.4783 98.9513Z" fill="#27214C"/>
<path d="M96.8065 101.955L96.8599 102.015C97.1078 102.319 97.0899 102.767 96.8065 103.05C96.523 103.334 96.0747 103.352 95.7706 103.104L95.7114 103.05L87.4524 94.7914C87.15 94.489 87.15 93.9988 87.4524 93.6964C87.7547 93.394 88.245 93.394 88.5474 93.6964L96.8065 101.955Z" fill="#27214C"/>
<path d="M99.9037 97.8259L99.9572 97.885C100.205 98.1892 100.187 98.6375 99.9037 98.9209C99.6203 99.2043 99.172 99.2223 98.8678 98.9744L98.8087 98.9209L90.5496 90.6618C90.2472 90.3594 90.2472 89.8692 90.5496 89.5668C90.852 89.2644 91.3422 89.2644 91.6446 89.5668L99.9037 97.8259Z" fill="#27214C"/>
<path d="M58.5755 102.049L58.5142 102.098C58.1965 102.329 57.7493 102.286 57.4823 101.987C57.2152 101.688 57.2233 101.238 57.4882 100.949L57.5442 100.893L66.8361 92.5975C67.1551 92.3127 67.6446 92.3405 67.9294 92.6595C68.2142 92.9785 68.1865 93.4679 67.8675 93.7527L58.5755 102.049Z" fill="#27214C"/>
<path d="M41.5417 39.5265L41.4358 39.5214C40.9153 39.4685 40.5092 39.0285 40.5092 38.4941C40.5092 37.9596 40.9153 37.5197 41.4358 37.4667L41.5417 37.4617L71.4814 37.4617C72.0516 37.4617 72.5138 37.9239 72.5138 38.4941C72.5138 39.0643 72.0516 39.5265 71.4814 39.5265L41.5417 39.5265Z" fill="#27214C"/>
<path d="M35.3473 16.8136L35.3523 16.7077C35.4053 16.1872 35.8452 15.7812 36.3797 15.7812C36.9141 15.7812 37.354 16.1872 37.407 16.7077L37.4121 16.8136V34.3644C37.4121 34.9346 36.9498 35.3969 36.3797 35.3969C35.8095 35.3969 35.3473 34.9346 35.3473 34.3644V16.8136Z" fill="#27214C"/>
<path d="M53.2439 14.451L53.1682 14.3768C52.8148 13.991 52.8042 13.3925 53.1598 12.9933C53.5153 12.5942 54.1111 12.5358 54.535 12.8426L54.6174 12.9092L73.2006 29.464C73.6263 29.8432 73.664 30.4958 73.2847 30.9216C72.9054 31.3473 72.2528 31.385 71.8271 31.0057L53.2439 14.451Z" fill="#27214C"/>
<path d="M85.599 30.997L85.5174 31.0647C85.0973 31.3767 84.5009 31.3255 84.1405 30.9307C83.78 30.536 83.7832 29.9374 84.132 29.5473L84.2068 29.4722L107.952 7.79189C108.373 7.40744 109.026 7.43712 109.41 7.85819C109.795 8.27926 109.765 8.93227 109.344 9.31672L85.599 30.997Z" fill="#27214C"/>
<path d="M6.77017 80.5471L6.69603 80.4714C6.35036 80.0784 6.35235 79.4798 6.71613 79.0881C7.07992 78.6963 7.67669 78.65 8.09417 78.9657L8.17517 79.034L22.6285 92.455C23.0463 92.8429 23.0705 93.4962 22.6825 93.914C22.2945 94.3318 21.6413 94.356 21.2235 93.968L6.77017 80.5471Z" fill="#27214C"/>
<path d="M31.2176 61.207L31.1118 61.2019C30.5913 61.1489 30.1852 60.709 30.1852 60.1746C30.1852 59.6401 30.5913 59.2002 31.1118 59.1472L31.2176 59.1422H54.9629C55.5331 59.1422 55.9953 59.6044 55.9953 60.1746C55.9953 60.7447 55.5331 61.207 54.9629 61.207H31.2176Z" fill="#27214C"/>
<path d="M98.3239 62.2393L98.218 62.2343C97.6976 62.1813 97.2915 61.7414 97.2915 61.2069C97.2915 60.6725 97.6976 60.2326 98.218 60.1796L98.3239 60.1745H126.199C126.769 60.1745 127.231 60.6368 127.231 61.2069C127.231 61.7771 126.769 62.2393 126.199 62.2393H98.3239Z" fill="#27214C"/>
<path d="M112.778 116.957L112.672 116.952C112.151 116.899 111.745 116.459 111.745 115.924C111.745 115.39 112.151 114.95 112.672 114.897L112.778 114.892H129.296C129.866 114.892 130.328 115.354 130.328 115.924C130.328 116.495 129.866 116.957 129.296 116.957H112.778Z" fill="#27214C"/>
<path d="M32.25 61.2069C32.25 64.0579 29.9389 66.369 27.088 66.369C24.2371 66.369 21.926 64.0579 21.926 61.2069C21.926 58.356 24.2371 56.0449 27.088 56.0449C29.9389 56.0449 32.25 58.356 32.25 61.2069Z" fill="white"/>
<path d="M30.1852 61.2069C30.1852 59.4964 28.7986 58.1097 27.088 58.1097C25.3775 58.1097 23.9908 59.4964 23.9908 61.2069C23.9908 62.9175 25.3775 64.3042 27.088 64.3042V66.369C24.2371 66.369 21.926 64.0579 21.926 61.2069C21.926 58.356 24.2371 56.0449 27.088 56.0449C29.9389 56.0449 32.25 58.356 32.25 61.2069C32.25 64.0579 29.9389 66.369 27.088 66.369V64.3042C28.7986 64.3042 30.1852 62.9175 30.1852 61.2069Z" fill="#27214C"/>
<path d="M65.287 60.1746C65.287 63.0255 62.9759 65.3366 60.1249 65.3366C57.274 65.3366 54.9629 63.0255 54.9629 60.1746C54.9629 57.3237 57.274 55.0125 60.1249 55.0125C62.9759 55.0125 65.287 57.3237 65.287 60.1746Z" fill="white"/>
<path d="M63.2222 60.1746C63.2222 58.464 61.8355 57.0774 60.1249 57.0774C58.4144 57.0774 57.0277 58.464 57.0277 60.1746C57.0277 61.8851 58.4144 63.2718 60.1249 63.2718V65.3366C57.274 65.3366 54.9629 63.0255 54.9629 60.1746C54.9629 57.3237 57.274 55.0125 60.1249 55.0125C62.9759 55.0125 65.287 57.3237 65.287 60.1746C65.287 63.0255 62.9759 65.3366 60.1249 65.3366V63.2718C61.8355 63.2718 63.2222 61.8851 63.2222 60.1746Z" fill="#27214C"/>
<path d="M98.3239 61.2069C98.3239 64.0579 96.0128 66.369 93.1619 66.369C90.311 66.369 87.9999 64.0579 87.9999 61.2069C87.9999 58.356 90.311 56.0449 93.1619 56.0449C96.0128 56.0449 98.3239 58.356 98.3239 61.2069Z" fill="white"/>
<path d="M96.2591 61.2069C96.2591 59.4964 94.8724 58.1097 93.1619 58.1097C91.4514 58.1097 90.0647 59.4964 90.0647 61.2069C90.0647 62.9175 91.4514 64.3042 93.1619 64.3042V66.369C90.311 66.369 87.9999 64.0579 87.9999 61.2069C87.9999 58.356 90.311 56.0449 93.1619 56.0449C96.0128 56.0449 98.3239 58.356 98.3239 61.2069C98.3239 64.0579 96.0128 66.369 93.1619 66.369V64.3042C94.8724 64.3042 96.2591 62.9175 96.2591 61.2069Z" fill="#27214C"/>
<path d="M134.458 61.2069C134.458 64.0579 132.147 66.369 129.296 66.369C126.445 66.369 124.134 64.0579 124.134 61.2069C124.134 58.356 126.445 56.0449 129.296 56.0449C132.147 56.0449 134.458 58.356 134.458 61.2069Z" fill="white"/>
<path d="M132.393 61.2069C132.393 59.4964 131.007 58.1097 129.296 58.1097C127.586 58.1097 126.199 59.4964 126.199 61.2069C126.199 62.9175 127.586 64.3042 129.296 64.3042V66.369C126.445 66.369 124.134 64.0579 124.134 61.2069C124.134 58.356 126.445 56.0449 129.296 56.0449C132.147 56.0449 134.458 58.356 134.458 61.2069C134.458 64.0579 132.147 66.369 129.296 66.369V64.3042C131.007 64.3042 132.393 62.9175 132.393 61.2069Z" fill="#27214C"/>
<path d="M133.426 95.2763C133.426 98.1272 131.115 100.438 128.264 100.438C125.413 100.438 123.102 98.1272 123.102 95.2763C123.102 92.4254 125.413 90.1143 128.264 90.1143C131.115 90.1143 133.426 92.4254 133.426 95.2763Z" fill="white"/>
<path d="M131.361 95.2763C131.361 93.5657 129.974 92.1791 128.264 92.1791C126.553 92.1791 125.166 93.5657 125.166 95.2763C125.166 96.9868 126.553 98.3735 128.264 98.3735V100.438C125.413 100.438 123.102 98.1272 123.102 95.2763C123.102 92.4254 125.413 90.1143 128.264 90.1143C131.115 90.1143 133.426 92.4254 133.426 95.2763C133.426 98.1272 131.115 100.438 128.264 100.438V98.3735C129.974 98.3735 131.361 96.9868 131.361 95.2763Z" fill="#27214C"/>
<path d="M110.713 76.693C110.713 79.5439 108.402 81.8551 105.551 81.8551C102.7 81.8551 100.389 79.5439 100.389 76.693C100.389 73.8421 102.7 71.531 105.551 71.531C108.402 71.531 110.713 73.8421 110.713 76.693Z" fill="white"/>
<path d="M108.648 76.693C108.648 74.9825 107.261 73.5958 105.551 73.5958C103.84 73.5958 102.454 74.9825 102.454 76.693C102.454 78.4036 103.84 79.7902 105.551 79.7902V81.8551C102.7 81.8551 100.389 79.5439 100.389 76.693C100.389 73.8421 102.7 71.531 105.551 71.531C108.402 71.531 110.713 73.8421 110.713 76.693C110.713 79.5439 108.402 81.8551 105.551 81.8551V79.7902C107.261 79.7902 108.648 78.4036 108.648 76.693Z" fill="#27214C"/>
<path d="M105.551 102.503C105.551 105.354 103.24 107.665 100.389 107.665C97.5379 107.665 95.2267 105.354 95.2267 102.503C95.2267 99.6522 97.5379 97.3411 100.389 97.3411C103.24 97.3411 105.551 99.6522 105.551 102.503Z" fill="white"/>
<path d="M103.486 102.503C103.486 100.793 102.099 99.4059 100.389 99.4059C98.6782 99.4059 97.2916 100.793 97.2916 102.503C97.2916 104.214 98.6782 105.6 100.389 105.6V107.665C97.5379 107.665 95.2267 105.354 95.2267 102.503C95.2267 99.6522 97.5379 97.3411 100.389 97.3411C103.24 97.3411 105.551 99.6522 105.551 102.503C105.551 105.354 103.24 107.665 100.389 107.665V105.6C102.099 105.6 103.486 104.214 103.486 102.503Z" fill="#27214C"/>
<path d="M114.842 113.86C114.842 116.711 112.531 119.022 109.68 119.022C106.829 119.022 104.518 116.711 104.518 113.86C104.518 111.009 106.829 108.698 109.68 108.698C112.531 108.698 114.842 111.009 114.842 113.86Z" fill="white"/>
<path d="M112.778 113.86C112.778 112.149 111.391 110.762 109.68 110.762C107.97 110.762 106.583 112.149 106.583 113.86C106.583 115.57 107.97 116.957 109.68 116.957V119.022C106.829 119.022 104.518 116.711 104.518 113.86C104.518 111.009 106.829 108.698 109.68 108.698C112.531 108.698 114.842 111.009 114.842 113.86C114.842 116.711 112.531 119.022 109.68 119.022V116.957C111.391 116.957 112.778 115.57 112.778 113.86Z" fill="#27214C"/>
<path d="M120.004 13.7163C120.004 16.5673 117.693 18.8784 114.842 18.8784C111.991 18.8784 109.68 16.5673 109.68 13.7163C109.68 10.8654 111.991 8.55432 114.842 8.55432C117.693 8.55432 120.004 10.8654 120.004 13.7163Z" fill="#00E2BF"/>
<path d="M117.94 13.7163C117.94 12.0058 116.553 10.6191 114.842 10.6191C113.132 10.6191 111.745 12.0058 111.745 13.7163C111.745 15.4269 113.132 16.8136 114.842 16.8136V18.8784C111.991 18.8784 109.68 16.5673 109.68 13.7163C109.68 10.8654 111.991 8.55432 114.842 8.55432C117.693 8.55432 120.004 10.8654 120.004 13.7163C120.004 16.5673 117.693 18.8784 114.842 18.8784V16.8136C116.553 16.8136 117.94 15.4269 117.94 13.7163Z" fill="#27214C"/>
<path d="M53.9306 75.6606C53.9306 78.5115 51.6194 80.8226 48.7685 80.8226C45.9176 80.8226 43.6065 78.5115 43.6065 75.6606C43.6065 72.8097 45.9176 70.4986 48.7685 70.4986C51.6194 70.4986 53.9306 72.8097 53.9306 75.6606Z" fill="white"/>
<path d="M51.8657 75.6606C51.8657 73.9501 50.4791 72.5634 48.7685 72.5634C47.058 72.5634 45.6713 73.9501 45.6713 75.6606C45.6713 77.3712 47.058 78.7578 48.7685 78.7578V80.8226C45.9176 80.8226 43.6065 78.5115 43.6065 75.6606C43.6065 72.8097 45.9176 70.4986 48.7685 70.4986C51.6194 70.4986 53.9306 72.8097 53.9306 75.6606C53.9306 78.5115 51.6194 80.8226 48.7685 80.8226V78.7578C50.4791 78.7578 51.8657 77.3712 51.8657 75.6606Z" fill="#27214C"/>
<path d="M30.1852 95.2763C30.1852 98.1272 27.8741 100.438 25.0232 100.438C22.1723 100.438 19.8612 98.1272 19.8612 95.2763C19.8612 92.4254 22.1723 90.1143 25.0232 90.1143C27.8741 90.1143 30.1852 92.4254 30.1852 95.2763Z" fill="white"/>
<path d="M28.1204 95.2763C28.1204 93.5657 26.7337 92.1791 25.0232 92.1791C23.3127 92.1791 21.926 93.5657 21.926 95.2763C21.926 96.9868 23.3127 98.3735 25.0232 98.3735V100.438C22.1723 100.438 19.8612 98.1272 19.8612 95.2763C19.8612 92.4254 22.1723 90.1143 25.0232 90.1143C27.8741 90.1143 30.1852 92.4254 30.1852 95.2763C30.1852 98.1272 27.8741 100.438 25.0232 100.438V98.3735C26.7337 98.3735 28.1204 96.9868 28.1204 95.2763Z" fill="#27214C"/>
<path d="M59.0926 102.503C59.0926 105.354 56.7815 107.665 53.9305 107.665C51.0796 107.665 48.7685 105.354 48.7685 102.503C48.7685 99.6522 51.0796 97.3411 53.9305 97.3411C56.7815 97.3411 59.0926 99.6522 59.0926 102.503Z" fill="white"/>
<path d="M57.0278 102.503C57.0278 100.793 55.6411 99.4059 53.9305 99.4059C52.22 99.4059 50.8333 100.793 50.8333 102.503C50.8333 104.214 52.22 105.6 53.9305 105.6V107.665C51.0796 107.665 48.7685 105.354 48.7685 102.503C48.7685 99.6522 51.0796 97.3411 53.9305 97.3411C56.7815 97.3411 59.0926 99.6522 59.0926 102.503C59.0926 105.354 56.7815 107.665 53.9305 107.665V105.6C55.6411 105.6 57.0278 104.214 57.0278 102.503Z" fill="#27214C"/>
<path d="M48.7685 113.86C48.7685 116.711 46.4574 119.022 43.6065 119.022C40.7556 119.022 38.4445 116.711 38.4445 113.86C38.4445 111.009 40.7556 108.698 43.6065 108.698C46.4574 108.698 48.7685 111.009 48.7685 113.86Z" fill="white"/>
<path d="M46.7037 113.86C46.7037 112.149 45.317 110.762 43.6065 110.762C41.8959 110.762 40.5093 112.149 40.5093 113.86C40.5093 115.57 41.8959 116.957 43.6065 116.957V119.022C40.7556 119.022 38.4445 116.711 38.4445 113.86C38.4445 111.009 40.7556 108.698 43.6065 108.698C46.4574 108.698 48.7685 111.009 48.7685 113.86C48.7685 116.711 46.4574 119.022 43.6065 119.022V116.957C45.317 116.957 46.7037 115.57 46.7037 113.86Z" fill="#27214C"/>
<path d="M41.5417 38.4941C41.5417 41.345 39.2306 43.6561 36.3797 43.6561C33.5288 43.6561 31.2177 41.345 31.2177 38.4941C31.2177 35.6431 33.5288 33.332 36.3797 33.332C39.2306 33.332 41.5417 35.6431 41.5417 38.4941Z" fill="white"/>
<path d="M39.4769 38.4941C39.4769 36.7835 38.0902 35.3968 36.3797 35.3968C34.6691 35.3968 33.2825 36.7835 33.2825 38.4941C33.2825 40.2046 34.6691 41.5913 36.3797 41.5913V43.6561C33.5288 43.6561 31.2177 41.345 31.2177 38.4941C31.2177 35.6431 33.5288 33.332 36.3797 33.332C39.2306 33.332 41.5417 35.6431 41.5417 38.4941C41.5417 41.345 39.2306 43.6561 36.3797 43.6561V41.5913C38.0902 41.5913 39.4769 40.2046 39.4769 38.4941Z" fill="#27214C"/>
<path d="M44.6389 14.7488C44.6389 17.5997 42.3278 19.9108 39.4769 19.9108C36.626 19.9108 34.3148 17.5997 34.3148 14.7488C34.3148 11.8978 36.626 9.58673 39.4769 9.58673C42.3278 9.58673 44.6389 11.8978 44.6389 14.7488Z" fill="white"/>
<path d="M42.5741 14.7488C42.5741 13.0382 41.1874 11.6515 39.4769 11.6515C37.7663 11.6515 36.3797 13.0382 36.3797 14.7488C36.3797 16.4593 37.7663 17.846 39.4769 17.846V19.9108C36.626 19.9108 34.3148 17.5997 34.3148 14.7488C34.3148 11.8978 36.626 9.58673 39.4769 9.58673C42.3278 9.58673 44.6389 11.8978 44.6389 14.7488C44.6389 17.5997 42.3278 19.9108 39.4769 19.9108V17.846C41.1874 17.846 42.5741 16.4593 42.5741 14.7488Z" fill="#27214C"/>
<path d="M55.9954 10.6191C55.9954 13.47 53.6843 15.7811 50.8333 15.7811C47.9824 15.7811 45.6713 13.47 45.6713 10.6191C45.6713 7.76821 47.9824 5.45709 50.8333 5.45709C53.6843 5.45709 55.9954 7.76821 55.9954 10.6191Z" fill="white"/>
<path d="M53.9306 10.6191C53.9306 8.90857 52.5439 7.5219 50.8333 7.5219C49.1228 7.5219 47.7361 8.90857 47.7361 10.6191C47.7361 12.3297 49.1228 13.7163 50.8333 13.7163V15.7811C47.9824 15.7811 45.6713 13.47 45.6713 10.6191C45.6713 7.76821 47.9824 5.45709 50.8333 5.45709C53.6843 5.45709 55.9954 7.76821 55.9954 10.6191C55.9954 13.47 53.6843 15.7811 50.8333 15.7811V13.7163C52.5439 13.7163 53.9306 12.3297 53.9306 10.6191Z" fill="#27214C"/>
<path d="M434.613 90.3934H426.354V47.0324H434.613V90.3934Z" fill="white"/>
<path d="M442.872 90.3934L464.977 47.4035C465.094 47.1757 465.329 47.0324 465.585 47.0324C465.842 47.0324 466.076 47.1757 466.194 47.4035L488.298 90.3934H479.237L475.839 83.5719H455.272L451.934 90.3934H442.872ZM459.326 76.3352H471.785L465.585 63.226L459.326 76.3352Z" fill="white"/>
<path d="M347.624 90.3934H330.34V47.0324H347.624C353.883 47.0324 359.026 48.849 363.053 52.4822C365.206 54.4172 366.821 56.7669 367.897 59.5313C369.014 62.2561 369.572 65.3167 369.572 68.7129C369.572 72.1486 369.014 75.2486 367.897 78.013C366.821 80.7379 365.206 83.0678 363.053 85.0029C361.1 86.78 358.807 88.1227 356.176 89.031C353.584 89.9393 350.734 90.3934 347.624 90.3934ZM338.713 83.0481H347.624C349.179 83.0481 350.754 82.8704 352.348 82.515C353.943 82.1595 355.378 81.4685 356.654 80.4417C357.97 79.3754 359.046 77.9143 359.884 76.0582C360.721 74.2021 361.139 71.7734 361.139 68.7721C361.139 65.7708 360.721 63.3421 359.884 61.4861C359.046 59.5905 357.97 58.1293 356.654 57.1026C355.338 56.0758 353.883 55.3847 352.288 55.0293C350.694 54.6739 349.139 54.4962 347.624 54.4962H338.713V83.0481Z" fill="white"/>
<path d="M297.79 90.3934C294.749 90.3934 291.883 89.8093 289.193 88.641C286.502 87.4728 284.143 85.8956 282.115 83.9096C280.127 81.8847 278.547 79.5287 277.378 76.8417C276.208 74.1548 275.623 71.2731 275.623 68.1967C275.623 65.1593 276.208 62.2971 277.378 59.6101C278.547 56.8842 280.127 54.5282 282.115 52.5422C284.143 50.5172 286.502 48.9206 289.193 47.7524C291.883 46.5841 294.749 46 297.79 46C300.871 46 303.756 46.5841 306.447 47.7524C309.137 48.9206 311.477 50.5172 313.466 52.5422C315.493 54.5282 317.092 56.8842 318.262 59.6101C319.431 62.2971 320.016 65.1593 320.016 68.1967C320.016 71.2731 319.431 74.1548 318.262 76.8417C317.092 79.5287 315.493 81.8847 313.466 83.9096C311.477 85.8956 309.137 87.4728 306.447 88.641C303.756 89.8093 300.871 90.3934 297.79 90.3934ZM297.79 53.652C295.841 53.652 294.008 54.0609 292.292 54.8787C290.616 55.6575 289.134 56.7089 287.847 58.0329C286.599 59.357 285.605 60.9146 284.864 62.7059C284.123 64.4583 283.753 66.2886 283.753 68.1967C283.753 70.1438 284.123 71.9935 284.864 73.7459C285.605 75.4982 286.599 77.0559 287.847 78.4189C289.134 79.7429 290.616 80.8138 292.292 81.6315C294.008 82.4104 295.841 82.7998 297.79 82.7998C299.74 82.7998 301.553 82.4104 303.23 81.6315C304.946 80.8138 306.427 79.7429 307.675 78.4189C308.962 77.0559 309.976 75.4982 310.717 73.7459C311.457 71.9935 311.828 70.1438 311.828 68.1967C311.828 66.2886 311.457 64.4583 310.717 62.7059C309.976 60.9146 308.962 59.357 307.675 58.0329C306.427 56.7089 304.946 55.6575 303.23 54.8787C301.553 54.0609 299.74 53.652 297.79 53.652Z" fill="white"/>
<path d="M240.429 90.3934H232.262V47.0324H251.769C253.962 47.0324 255.96 47.4076 257.762 48.1579C259.603 48.8687 261.169 49.8955 262.462 51.2382C263.755 52.5414 264.753 54.121 265.458 55.9771C266.203 57.7937 266.575 59.788 266.575 61.96C266.575 65.2377 265.752 68.1008 264.107 70.5492C262.501 72.9977 260.347 74.755 257.644 75.8213C261.287 80.6392 264.871 85.4965 268.396 90.3934H258.584C256.861 88.1424 255.176 85.8717 253.531 83.5812C251.886 81.2907 250.241 78.9608 248.596 76.5913H240.429V90.3934ZM240.429 69.246H251.769C252.513 69.246 253.277 69.1078 254.06 68.8314C254.883 68.5155 255.607 68.0613 256.234 67.4689C256.861 66.8371 257.37 66.067 257.762 65.1587C258.192 64.2504 258.408 63.1842 258.408 61.96C258.408 61.3281 258.33 60.5778 258.173 59.709C258.016 58.8402 257.703 58.0109 257.233 57.2211C256.763 56.4312 256.097 55.7599 255.235 55.207C254.373 54.6542 253.218 54.3777 251.769 54.3777H240.429V69.246Z" fill="white"/>
<path d="M206.364 47.0324C208.52 47.0324 210.537 47.4471 212.414 48.2764C214.331 49.0662 215.988 50.1522 217.385 51.5344C218.783 52.9166 219.881 54.5554 220.68 56.451C221.519 58.3071 221.938 60.3013 221.938 62.4339C221.938 64.5664 221.579 66.5409 220.86 68.3575C220.141 70.1741 219.083 71.7734 217.685 73.1556C216.287 74.4983 214.51 75.5646 212.354 76.3544C210.237 77.1047 207.781 77.4799 204.986 77.4799H195.222V90.3934H186.836V47.0324H206.364ZM206.364 70.0161C207.602 70.0161 208.68 69.8186 209.598 69.4237C210.517 68.9893 211.256 68.4167 211.815 67.7059C212.414 66.9951 212.853 66.1855 213.133 65.2772C213.412 64.3689 213.552 63.4211 213.552 62.4339C213.552 61.4466 213.372 60.4791 213.013 59.5313C212.653 58.544 212.134 57.6752 211.455 56.9249C210.776 56.1745 209.938 55.5624 208.94 55.0886C207.941 54.6147 206.783 54.3777 205.465 54.3777H195.222V70.0161H206.364Z" fill="white"/>
<path d="M372.669 90.3932L394.774 47.4033C394.891 47.1755 395.126 47.0322 395.382 47.0322C395.638 47.0322 395.873 47.1755 395.99 47.4033L418.095 90.3932H409.034L405.636 83.5717H385.069L381.73 90.3932H372.669ZM389.122 76.335H401.582L395.382 63.2259L389.122 76.335Z" fill="white"/>
<path d="M409.061 90.3932H381.665L395.382 63.0345L409.061 90.3932Z" fill="#00E2BF"/>
<path d="M400.544 90.3932H389.187L394.874 79.0367L400.544 90.3932Z" fill="white"/>
</svg>
